<svg width="16" height="16" viewBox="0 0 16 16" xmlns="http://www.w3.org/2000/svg">
  <path fill="#888888" d="M8 5.5a2.5 2.5 0 1 0 0 5 2.5 2.5 0 0 0 0-5zm0 4a1.5 1.5 0 1 1 0-3 1.5 1.5 0 0 1 0 3z"/>
  <path fill="#888888" d="M13.9 6.5l-1-.2c-.1-.3-.2-.6-.4-.9l.6-.8c.2-.3.2-.7-.1-.9l-1-1c-.3-.2-.7-.2-.9.1l-.8.6c-.3-.2-.6-.3-.9-.4l-.2-1c0-.3-.3-.5-.6-.5H7.4c-.3 0-.6.2-.6.5l-.2 1c-.3.1-.6.2-.9.4l-.8-.6c-.3-.2-.7-.2-.9.1l-1 1c-.2.3-.2.7.1.9l.6.8c-.2.3-.3.6-.4.9l-1 .2c-.3 0-.5.3-.5.6v1.4c0 .3.2.6.5.6l1 .2c.1.3.2.6.4.9l-.6.8c-.2.3-.2.7.1.9l1 1c.3.2.7.2.9-.1l.8-.6c.3.2.6.3.9.4l.2 1c0 .3.3.5.6.5h1.4c.3 0 .6-.2.6-.5l.2-1c.3-.1.6-.2.9-.4l.8.6c.3.2.7.2.9-.1l1-1c.2-.3.2-.7-.1-.9l-.6-.8c.2-.3.3-.6.4-.9l1-.2c.3 0 .5-.3.5-.6V7.1c-.1-.3-.3-.6-.6-.6zm-.9 2l-.9.2c-.2 0-.4.2-.4.4-.1.4-.3.8-.5 1.1-.1.2-.1.4 0 .5l.5.7-.5.5-.7-.5c-.2-.1-.4-.1-.5 0-.4.2-.7.4-1.1.5-.2.1-.4.2-.4.4l-.2.9h-.8l-.2-.9c0-.2-.2-.4-.4-.4-.4-.1-.8-.3-1.1-.5-.2-.1-.4-.1-.5 0l-.7.5-.5-.5.5-.7c.1-.2.1-.4 0-.5-.2-.4-.4-.7-.5-1.1-.1-.2-.2-.4-.4-.4l-.9-.2v-.8l.9-.2c.2 0 .4-.2.4-.4.1-.4.3-.8.5-1.1.1-.2.1-.4 0-.5l-.5-.7.5-.5.7.5c.2.1.4.1.5 0 .4-.2.7-.4 1.1-.5.2-.1.4-.2.4-.4l.2-.9h.8l.2.9c0 .2.2.4.4.4.4.1.8.3 1.1.5.2.1.4.1.5 0l.7-.5.5.5-.5.7c-.1.2-.1.4 0 .5.2.4.4.7.5 1.1.1.2.2.4.4.4l.9.2v.8z"/>
</svg>
